# xmcd CD database file
#
# Track frame offsets:
#	150
#	20995
#	38566
#	51573
#	74140
#	94046
#	113767
#	143382
#	164065
#	189952
#	206950
#	221828
#	252658
#
# Disc length: 3468 seconds
#
# Revision: 0
# Processed by: cddbd v1.5.2PL0 Copyright (c) Steve Scherf et al.
# Submitted via: CDex 1.51
#
DISCID=d00d8a0d
DTITLE=Ray Lemelin - Here To Stay
DYEAR=1900
DGENRE=Blues
TTITLE0=Fowileedee
TTITLE1=What Has Become Of Me?
TTITLE2=Dummy Up!
TTITLE3=You Don't Know What Love Is
TTITLE4=Tell The Truth
TTITLE5=Ginger Man
TTITLE6=All Alone For Xmas
TTITLE7=Your Eyes
TTITLE8=Don't Let The Sun Catch You Cryin'
TTITLE9=River's Invitation
TTITLE10=Where's Elmo
TTITLE11=Here To Stay
TTITLE12=Sinner's Song
EXTD=
EXTT0=
EXTT1=
EXTT2=
EXTT3=
EXTT4=
EXTT5=
EXTT6=
EXTT7=
EXTT8=
EXTT9=
EXTT10=
EXTT11=
EXTT12=
PLAYORDER=
